<?xml version="1.0" encoding="utf-8"?>
<!-- Generator: Adobe Illustrator 25.2.1, SVG Export Plug-In . SVG Version: 6.00 Build 0)  -->
<svg version="1.1" id="Layer_1" xmlns="http://www.w3.org/2000/svg" xmlns:xlink="http://www.w3.org/1999/xlink" x="0px" y="0px"
	 viewBox="0 0 286.6 26.7" style="enable-background:new 0 0 286.6 26.7;" xml:space="preserve">
<style type="text/css">
	.st0{fill:#FFFFFF;}
</style>
<g>
	<path class="st0" d="M216.8,7.7h2.3l3.7,5.5l3.7-5.5h2.3v11.5h-2.1V11l-3.8,5.4h-0.1l-3.8-5.4v8.2h-2.1V7.7z"/>
	<path class="st0" d="M233.3,7.7h9v1.8h-6.9v3h6.1v1.8h-6.1v3.1h6.9v1.8h-9.1V7.7z"/>
	<path class="st0" d="M249.2,9.6h-3.8V7.7h9.8v1.9h-3.8v9.7h-2.1V9.6z"/>
	<path class="st0" d="M261.6,7.7h2l5.3,11.6h-2.3l-1.2-2.8h-5.7l-1.2,2.8h-2.2L261.6,7.7z M264.6,14.7l-2.1-4.6l-2.1,4.6H264.6z"/>
	<path class="st0" d="M272.4,7.7h2.1v9.7h6.4v1.8h-8.5V7.7z"/>
	<path class="st0" d="M281.6,7.6h-1V7.3h2.4v0.3h-1v2.8h-0.4V7.6z"/>
	<path class="st0" d="M283.6,7.3h0.4l1.1,1.7l1.1-1.7h0.4v3.1h-0.3V7.9l-1.1,1.6h0L284,7.9v2.5h-0.3V7.3z"/>
</g>
<g>
	<g>
		<polygon class="st0" points="60,13.8 66,13.8 66,12.1 60,12.1 60,8.6 68.9,8.6 68.9,6.9 58.2,6.9 58.2,19.6 69.2,19.6 69.2,17.9 
			60,17.9 		"/>
		<path class="st0" d="M106.8,14.5c0,2.3-1.5,3.8-3.6,3.8c-2.1,0-3.4-1.5-3.4-3.8V6.9H98v7.7c0,3.5,2.4,5.3,5.2,5.3
			c4.1,0,5.4-2.9,5.4-5.3V6.9h-1.8V14.5z"/>
		<rect x="118.5" y="6.9" class="st0" width="1.8" height="12.7"/>
		<polygon class="st0" points="141.3,16.8 132.6,6.9 130.8,6.9 130.8,19.6 132.6,19.6 132.6,9.6 141.3,19.6 143,19.6 143,6.9 
			141.3,6.9 		"/>
		<rect x="153.7" y="6.9" class="st0" width="1.8" height="12.7"/>
		<polygon class="st0" points="172.6,12.7 177.7,6.9 175.5,6.9 171.5,11.4 167.5,6.9 165.2,6.9 170.2,12.7 164,19.6 166.3,19.6 
			171.3,13.9 176.1,19.6 178.6,19.6 		"/>
		<path class="st0" d="M87.3,13.2c0,1.8-0.6,3-1.6,4l-1-1.1l-2,0l1.7,2c-0.4,0.2-1.1,0.4-1.7,0.4c-2.6,0-4.7-2.2-4.7-5.1l0,0
			c0-3,2-5.2,4.6-5.2C85.2,8,87.3,10.2,87.3,13.2L87.3,13.2z M82.6,6.4c-3.7,0-6.5,2.9-6.5,6.9v0c0,4,2.9,6.8,6.5,6.7
			c0.9,0,2-0.3,2.9-0.7l1,1.2l2,0l-1.8-2.1c1.4-1.1,2.3-3,2.3-5.3v-0.1C89.1,9.2,86.2,6.4,82.6,6.4"/>
	</g>
	<g>
		<polygon class="st0" points="20,0 16,1.4 16,22.4 13.3,21.4 13.3,2.3 5.3,5.1 5.3,18.6 2.7,17.7 2.7,6.1 0,7 0,19.6 8,22.4 8,7 
			10.7,6.1 10.7,23.3 18.6,26.1 18.6,3.3 20,2.8 21.3,3.3 21.3,26.1 29.3,23.3 29.3,6.1 32,7 32,22.4 40,19.6 40,7 37.3,6.1 
			37.3,17.7 34.6,18.6 34.6,5.1 26.6,2.3 26.6,21.4 24,22.4 24,1.4 		"/>
		<path class="st0" d="M47.3,18.7c1.3,0,2.4-1.1,2.4-2.4v0c0-1.3-1-2.4-2.4-2.4c-1.3,0-2.4,1.1-2.4,2.4v0
			C44.9,17.6,46,18.7,47.3,18.7 M47.3,18.5c-1.2,0-2.1-1-2.1-2.1v0c0-1.2,0.9-2.2,2.1-2.2c1.2,0,2.1,1,2.1,2.1v0
			C49.5,17.5,48.5,18.5,47.3,18.5 M46.3,17.5h0.6v-0.8h0.4l0.5,0.8h0.7L48,16.6c0.3-0.1,0.6-0.4,0.6-0.8c0-0.6-0.4-0.8-1-0.8h-1.2
			V17.5z M46.9,16.2v-0.7h0.5c0.3,0,0.4,0.1,0.4,0.3c0,0.2-0.2,0.3-0.4,0.3H46.9z"/>
	</g>
</g>
<line class="st0" x1="197.5" y1="0" x2="197.5" y2="26.7"/>
<rect x="197.2" y="0" class="st0" width="0.4" height="26.7"/>
</svg>
