<?xml version="1.0" encoding="utf-8"?>
<!-- Generator: Adobe Illustrator 25.2.1, SVG Export Plug-In . SVG Version: 6.00 Build 0)  -->
<svg version="1.1" id="Layer_1" xmlns="http://www.w3.org/2000/svg" xmlns:xlink="http://www.w3.org/1999/xlink" x="0px" y="0px"
	 viewBox="0 0 104.1 94.3" style="enable-background:new 0 0 104.1 94.3;" xml:space="preserve">
<style type="text/css">
	.st0{fill:#ED1C24;}
	.st1{fill:#FFFFFF;}
</style>
<polygon class="st0" points="71.5,6.5 71.5,19 68.6,20 68.6,5.5 60,2.5 60,23 57.1,24 57.1,1.5 52.8,0 48.6,1.5 48.6,24 45.7,23 
	45.7,2.5 37.1,5.5 37.1,20 34.2,19 34.2,6.5 31.4,7.5 31.4,21.1 40,24.1 40,7.5 42.8,6.5 42.8,25.1 51.4,28.1 51.4,3.5 52.8,3 
	54.3,3.5 54.3,28.1 62.9,25.1 62.9,6.5 65.7,7.5 65.7,24.1 74.3,21.1 74.3,7.5 "/>
<polygon class="st1" points="1.9,44.4 7,44.4 7,43 1.9,43 1.9,40 9.5,40 9.5,38.6 0.3,38.6 0.3,49.2 9.7,49.2 9.7,47.8 1.9,47.8 "/>
<g>
	<path class="st1" d="M42.1,45c0,1.9-1.2,3.1-3.1,3.1c-1.8,0-2.9-1.3-2.9-3.1v-6.3h-1.5v6.4c0,2.9,2.1,4.4,4.4,4.4
		c3.5,0,4.6-2.4,4.6-4.4v-6.4h-1.5V45z"/>
</g>
<rect x="52.1" y="38.6" class="st1" width="1.5" height="10.5"/>
<polygon class="st1" points="71.7,46.9 64.2,38.6 62.7,38.6 62.7,49.2 64.2,49.2 64.2,40.8 71.7,49.2 73.2,49.2 73.2,38.6 
	71.7,38.6 "/>
<rect x="82.4" y="38.6" class="st1" width="1.5" height="10.5"/>
<polygon class="st1" points="98.6,43.5 103,38.6 101.1,38.6 97.6,42.4 94.3,38.6 92.3,38.6 96.5,43.5 91.2,49.2 93.1,49.2 
	97.5,44.5 101.6,49.2 103.7,49.2 "/>
<path class="st1" d="M21.2,38.2c-3.1,0-5.6,2.4-5.6,5.7v0c0,3.3,2.5,5.6,5.6,5.6c0.8,0,1.7-0.2,2.5-0.6l0.9,1l1.8,0l-1.5-1.7
	c1.2-0.9,2-2.5,2-4.4v0C26.9,40.5,24.4,38.2,21.2,38.2 M25.3,43.9c0,1.5-0.5,2.5-1.4,3.3l-0.8-0.9l-1.8,0l1.4,1.7
	c-0.4,0.2-1,0.3-1.5,0.3c-2.3,0-4.1-1.8-4.1-4.3l0,0c0-2.5,1.7-4.3,4-4.3C23.5,39.5,25.3,41.4,25.3,43.9L25.3,43.9z"/>
<path class="st0" d="M79.8,20.1c1.4,0,2.6-1.2,2.6-2.6v0c0-1.4-1.1-2.6-2.6-2.6c-1.4,0-2.6,1.2-2.6,2.6v0
	C77.2,19,78.4,20.1,79.8,20.1 M79.8,19.8c-1.3,0-2.3-1-2.3-2.3v0c0-1.3,1-2.3,2.3-2.3c1.3,0,2.3,1,2.3,2.3v0
	C82.1,18.8,81.1,19.8,79.8,19.8 M78.7,18.8h0.7V18h0.4l0.6,0.8h0.8l-0.7-1c0.4-0.1,0.6-0.4,0.6-0.8c0-0.6-0.5-0.9-1.1-0.9h-1.3V18.8
	z M79.4,17.4v-0.7H80c0.3,0,0.5,0.1,0.5,0.4c0,0.2-0.2,0.4-0.5,0.4H79.4z"/>
<g>
	<path class="st1" d="M19.8,82.8H22l3.7,5.5l3.7-5.5h2.3v11.5h-2.1V86l-3.8,5.4h-0.1l-3.8-5.4v8.2h-2.1V82.8z"/>
	<path class="st1" d="M36.2,82.8h9v1.8h-6.9v3h6.1v1.8h-6.1v3.1h6.9v1.8h-9.1V82.8z"/>
	<path class="st1" d="M52.2,84.6h-3.8v-1.9h9.8v1.9h-3.8v9.7h-2.1V84.6z"/>
	<path class="st1" d="M64.5,82.7h2l5.3,11.6h-2.3l-1.2-2.8h-5.7l-1.2,2.8h-2.2L64.5,82.7z M67.6,89.7l-2.1-4.6l-2.1,4.6H67.6z"/>
	<path class="st1" d="M75.3,82.8h2.1v9.7h6.4v1.8h-8.5V82.8z"/>
	<path class="st1" d="M84.5,82.6h-1v-0.3h2.4v0.3h-1v2.8h-0.4V82.6z"/>
	<path class="st1" d="M86.5,82.3h0.4L88,84l1.1-1.7h0.4v3.1h-0.3v-2.5L88,84.6h0l-1.1-1.6v2.5h-0.3V82.3z"/>
</g>
<g>
	<rect x="0" y="65.5" class="st1" width="104.1" height="0.5"/>
</g>
</svg>
